# xmcd
#
# Track frame offsets:
#	150
#	17525
#	28220
#	44375
#	61242
#	81195
#	100745
#	123255
#	133305
#	152847
#	171532
#	182905
#	201272
#	214272
#	233805
#	251002
#	268790
#	282020
#	298905
#
# Disc length: 4259 seconds
#
# Revision: 0
# Processed by: cddbd v1.4PL0 Copyright (c) Steve Scherf et al.
# Submitted via: audiograbber 1.81.02
#
DISCID=2310a113
DTITLE=Darrow, Chris - Straight From The Heart '97
DYEAR=1997
DGENRE=
TTITLE0=Stage By Stage
TTITLE1=You're Inside Of Me
TTITLE2=Hungry And Wild
TTITLE3=Any Old Port In The Storm
TTITLE4=Straight From The Heart
TTITLE5=Someone's Been Foolin' With My Baby
TTITLE6=Easy Street
TTITLE7=Can't Outplay The Blues
TTITLE8=Eye Of The Storm
TTITLE9=Nothin' Left To Say
TTITLE10=Bye, Bye, Baby
TTITLE11=Living In A Prayer
TTITLE12=Walk The Walk, Talk The Talk
TTITLE13=Lookin' For Daddy
TTITLE14=Push And Pull
TTITLE15=Neon Sin
TTITLE16=Hard On The Trail
TTITLE17=Straight Down The Line
TTITLE18=Beautiful Trail
EXTD=
EXTT0=
EXTT1=
EXTT2=
EXTT3=
EXTT4=
EXTT5=
EXTT6=
EXTT7=
EXTT8=
EXTT9=
EXTT10=
EXTT11=
EXTT12=
EXTT13=
EXTT14=
EXTT15=
EXTT16=
EXTT17=
EXTT18=
PLAYORDER=
